<svg width="158" height="33" viewBox="0 0 158 33" fill="none" xmlns="http://www.w3.org/2000/svg">
<path fill-rule="evenodd" clip-rule="evenodd" d="M105.399 13.3511H95.8798V0.848755H105.31V3.29564H98.6125V5.83182H104.506V8.27871H98.6125V10.9042H105.399V13.3511ZM88.3003 11.6716C88.5265 11.1894 88.6396 10.6387 88.6396 10.0195V9.98382C88.6396 9.4361 88.5533 8.96578 88.3806 8.57285C88.208 8.17992 87.952 7.83759 87.6127 7.54587C87.2733 7.25415 86.8566 7.00411 86.3624 6.79573C85.8683 6.58736 85.3057 6.39983 84.6746 6.23313C84.1388 6.09024 83.6953 5.96522 83.344 5.85806C82.9927 5.75089 82.7159 5.63778 82.5135 5.51871C82.3111 5.39964 82.1712 5.26569 82.0938 5.11685C82.0164 4.96801 81.9777 4.79238 81.9777 4.58996V4.55424C81.9777 4.24466 82.1116 3.98569 82.3795 3.77731C82.6474 3.56894 83.0493 3.46475 83.5851 3.46475C84.1209 3.46475 84.6567 3.57489 85.1926 3.79517C85.7284 4.01545 86.2761 4.3161 86.8357 4.69713L88.2646 2.62531C87.6216 2.11331 86.9161 1.72038 86.1481 1.44652C85.3801 1.17266 84.5377 1.03573 83.6208 1.03573C82.9779 1.03573 82.3885 1.12503 81.8526 1.30364C81.3168 1.48224 80.8554 1.73824 80.4685 2.07164C80.0815 2.40504 79.7808 2.80094 79.5665 3.25936C79.3522 3.71778 79.245 4.23275 79.245 4.80429V4.84001C79.245 5.45918 79.3433 5.97712 79.5397 6.39387C79.7362 6.81062 80.013 7.15889 80.3702 7.43871C80.7274 7.71852 81.162 7.95368 81.674 8.1442C82.1861 8.33471 82.7576 8.50736 83.3887 8.66215C83.9126 8.79313 84.3382 8.91815 84.6657 9.03722C84.9931 9.15629 85.2491 9.27536 85.4337 9.39443C85.6182 9.5135 85.7433 9.6415 85.8087 9.77843C85.8742 9.91536 85.907 10.0731 85.907 10.2517V10.2875C85.907 10.6566 85.7492 10.9453 85.4337 11.1537C85.1181 11.3621 84.6746 11.4662 84.1031 11.4662C83.3886 11.4662 82.7308 11.3293 82.1295 11.0555C81.5282 10.7816 80.9418 10.4125 80.3702 9.9481L78.7449 11.8949C79.4951 12.5736 80.3286 13.0767 81.2454 13.4041C82.1622 13.7315 83.0969 13.8953 84.0495 13.8953C84.7282 13.8953 85.3473 13.8089 85.907 13.6363C86.4666 13.4636 86.9488 13.2136 87.3537 12.8862C87.7585 12.5587 88.074 12.1539 88.3003 11.6716ZM70.035 13.7167H72.9105L67.5524 1.12503H65.0162L59.658 13.7167H62.4621L63.6052 10.9126H68.8919L70.035 13.7167ZM53.3682 11.7877C53.5885 11.3591 53.6986 10.859 53.6986 10.2875V10.2517C53.6986 9.41824 53.4902 8.76634 53.0735 8.29601C52.6567 7.82568 52.0852 7.45359 51.3589 7.17973C51.5851 7.06066 51.7965 6.91778 51.9929 6.75108C52.1894 6.58438 52.362 6.3909 52.5109 6.17062C52.6597 5.95034 52.7788 5.70327 52.8681 5.42941C52.9574 5.15554 53.002 4.84001 53.002 4.4828V4.44708C53.002 3.4588 52.6359 2.67294 51.9036 2.0895C51.1713 1.50605 50.1622 1.21434 48.8763 1.21434H43.0716V13.7167H49.0192C49.7217 13.7167 50.3617 13.6452 50.9392 13.5023C51.5167 13.3595 52.0108 13.1451 52.4216 12.8594C52.8324 12.5736 53.1479 12.2164 53.3682 11.7877ZM50.2694 4.91145V4.94717C50.2694 5.41155 50.0908 5.74792 49.7336 5.95629C49.3764 6.16466 48.8941 6.26885 48.2869 6.26885H45.7507V3.6255H48.4655C49.0489 3.6255 49.4954 3.73564 49.805 3.95592C50.1146 4.1762 50.2694 4.49471 50.2694 4.91145ZM50.966 9.9481V9.91238C50.966 9.49564 50.8052 9.16522 50.4837 8.92113C50.1622 8.67703 49.6443 8.55499 48.9299 8.55499H45.7507V11.3055H49.0192C49.6264 11.3055 50.1027 11.1954 50.448 10.9751C50.7933 10.7548 50.966 10.4125 50.966 9.9481ZM67.9096 8.48355L66.2486 4.42922L64.5875 8.48355H67.9096ZM55.2525 32.3511H52.3769L51.2339 29.547H45.9472L44.8041 32.3511H42L47.3581 19.7595H49.8943L55.2525 32.3511ZM50.2515 27.118L48.5905 23.0636L46.9295 27.118H50.2515ZM71.446 26.1178C71.7079 25.5701 71.8389 24.933 71.8389 24.2067V24.171C71.8389 23.528 71.7287 22.9416 71.5085 22.4117C71.2882 21.8819 70.9727 21.4264 70.5619 21.0454C70.1511 20.6644 69.651 20.3697 69.0616 20.1613C68.4722 19.9529 67.8024 19.8488 67.0523 19.8488H61.9442V32.3511H64.6947V28.6004H66.7844C67.4869 28.6004 68.1447 28.5081 68.758 28.3235C69.3712 28.139 69.907 27.8622 70.3654 27.493C70.8238 27.1239 71.184 26.6655 71.446 26.1178ZM69.0527 24.2603V24.2246C69.0527 23.6054 68.8532 23.1351 68.4543 22.8136C68.0554 22.4921 67.5107 22.3314 66.8201 22.3314H64.6947V26.1535H66.8737C67.5643 26.1535 68.1001 25.9719 68.4811 25.6088C68.8621 25.2456 69.0527 24.7961 69.0527 24.2603ZM88.1395 26.1178C88.4015 25.5701 88.5325 24.933 88.5325 24.2067V24.171C88.5325 23.528 88.4223 22.9416 88.202 22.4117C87.9818 21.8819 87.6662 21.4264 87.2554 21.0454C86.8447 20.6644 86.3446 20.3697 85.7552 20.1613C85.1658 19.9529 84.496 19.8488 83.7459 19.8488H78.6378V32.3511H81.3883V28.6004H83.478C84.1805 28.6004 84.8383 28.5081 85.4515 28.3235C86.0647 28.139 86.6006 27.8622 87.059 27.493C87.5174 27.1239 87.8776 26.6655 88.1395 26.1178ZM85.7462 24.2603V24.2246C85.7462 23.6054 85.5468 23.1351 85.1479 22.8136C84.749 22.4921 84.2043 22.3314 83.5137 22.3314H81.3883V26.1535H83.5673C84.2579 26.1535 84.7937 25.9719 85.1747 25.6088C85.5557 25.2456 85.7462 24.7961 85.7462 24.2603ZM104.637 32.3511H107.512L102.154 19.7595H99.6179L94.2597 32.3511H97.0638L98.2069 29.547H103.494L104.637 32.3511ZM102.511 27.118L100.85 23.0636L99.1892 27.118H102.511ZM121.795 32.3511H125.009L121.955 27.886C122.753 27.5883 123.399 27.1209 123.893 26.4839C124.387 25.8469 124.634 25.0223 124.634 24.0102V23.9745C124.634 22.6767 124.221 21.6646 123.393 20.9382C122.566 20.2119 121.408 19.8488 119.919 19.8488H114.204V32.3511H116.954V28.3503H119.116L121.795 32.3511ZM121.848 24.1531V24.1174C121.848 23.5221 121.658 23.0755 121.277 22.7779C120.896 22.4802 120.366 22.3314 119.687 22.3314H116.954V25.9213H119.741C120.419 25.9213 120.94 25.7606 121.303 25.4391C121.667 25.1176 121.848 24.6889 121.848 24.1531ZM131.88 32.3511H141.399V29.9042H134.612V27.2787H140.506V24.8318H134.612V22.2956H141.31V19.8488H131.88V32.3511ZM157.593 32.3511H148.609V19.8488H151.36V29.8506H157.593V32.3511Z" fill="#423A3A"/>
<path fill-rule="evenodd" clip-rule="evenodd" d="M15.5 32.088C24.0604 32.088 31 25.1484 31 16.588C31 8.0276 24.0604 1.08801 15.5 1.08801C6.93959 1.08801 0 8.0276 0 16.588C0 25.1484 6.93959 32.088 15.5 32.088ZM15.5 28.588C22.4036 28.588 28 23.2154 28 16.588C28 9.9606 22.4036 4.58801 15.5 4.58801C8.59644 4.58801 3 9.9606 3 16.588C3 23.2154 8.59644 28.588 15.5 28.588Z" fill="url(#paint0_linear_0_164)"/>
<defs>
<linearGradient id="paint0_linear_0_164" x1="-15.5" y1="16.588" x2="15.5" y2="47.588" gradientUnits="userSpaceOnUse">
<stop stop-color="#F8BFBF"/>
<stop offset="1" stop-color="#EE8B8B"/>
</linearGradient>
</defs>
</svg>
